<svg xmlns="http://www.w3.org/2000/svg" viewBox="0 0 96 96" role="img" aria-label="Bitcoin">
  <circle cx="48" cy="48" r="44" fill="#f7931a"/>
  <path fill="#fff" d="M59.8 44.1c4.1-1.9 6.2-5.1 5.5-9.7-1-6.3-6.4-8.4-13.4-9.2v-8.1h-5v7.9h-4v-7.9h-5v7.9H27.8v5.4h3.7c2.1 0 3 .6 3 2.5v29.9c0 1.9-.9 2.5-3 2.5h-3.7v5.7h10.1v8h5v-8h4v8h5v-8.1c8.4-.7 15.1-3.4 16.1-11.3.8-6.3-2.5-10.4-8.2-11.5ZM43 31.2h6.4c4.6 0 7.3 1.6 7.3 5.1 0 3.7-2.6 5.3-7 5.3H43V31.2Zm7.8 33.4H43V52.8h7.9c5.5 0 8.4 1.8 8.4 5.8 0 4.3-3.1 6-8.5 6Z"/>
</svg>
